<svg xmlns="http://www.w3.org/2000/svg" viewBox="0 0 512 512"><circle cx="256" cy="256" r="227.72" fill="#fff"/><path d="M455.02 255.43c0 110.01-89.18 199.19-199.19 199.19S56.64 365.43 56.64 255.43 145.82 56.24 255.83 56.24s199.19 89.18 199.19 199.19M255.83 100.55c-85.53 0-154.87 69.34-154.87 154.87s69.34 154.87 154.87 154.87S410.7 340.95 410.7 255.42s-69.34-154.87-154.87-154.87" fill="#647b52"/><path d="M296.85 138.71h-29.62l-9.16-28.17-9.15 28.17h-29.63l23.96 17.42-9.15 28.17 23.96-17.41 23.97 17.41-9.15-28.17 23.96-17.42Zm-39.03 22.84a10.56 10.56 0 1 1 0-21.11 10.56 10.56 0 0 1 0 21.11m39.03 188.68h-29.62l-9.16-28.17-9.15 28.17h-29.63l23.96 17.42-9.15 28.17 23.96-17.41 23.97 17.41-9.15-28.17 23.96-17.42Zm-39.03 23.81a10.56 10.56 0 1 1 0-21.11 10.56 10.56 0 0 1 0 21.11" fill="#231f20"/><circle cx="87.58" cy="260.56" r="86.74" fill="#394278"/><circle cx="87.38" cy="291.89" r="34.15" transform="rotate(-45 87.38 291.9)" fill="#fff"/><path d="M123.91 275.63c-4.57-10.28-12.37-17.27-23.25-21.29 7.21-4.94 11.81-11.17 12.48-19.77.68-8.48-1.83-15.88-8.25-21.51-10.24-8.98-24.34-9.49-35.26.83-4.97 4.69-7.48 10.76-7.55 17.76-.08 9.84 4.45 17.17 12.57 22.65a40.04 40.04 0 0 0-25.62 45.93c3.91 17.29 18.81 30.72 37.97 31.12a39.5 39.5 0 0 0 38.27-26.79 38.4 38.4 0 0 0-1.37-28.92Zm-7.22 24.82c-3.45 11.37-13.28 21.41-25.57 21.41l-.54-.02-.29.02c-7.39 0-14.43-1.97-20.09-5.72-7.23-4.47-12.37-11.75-13.34-21.62-1.23-12.46 6.87-26.71 19-31.16a22.5 22.5 0 0 1 9.18-1.99c6.18 0 12.13 1.37 17.23 4.02 8.57 4.25 14.84 12.04 15.92 23.04.39 3.95-.18 8.07-1.49 12.01Z" fill="#ffd02d" fill-rule="evenodd"/><path d="M69.27 231.93c-.06 9.92 8.14 18.3 17.67 18.67 10.6.4 19.05-8.59 19.29-17.93a18.74 18.74 0 0 0-17.5-19.03c-11.07-.58-19.6 8.64-19.45 18.3Zm-10.28 50.12c.13.04.27.14.4.14 4.92 0 9.83.04 14.74.02 2.23 0 5.08.73 6.53-.36 1.52-1.13 1.78-4.03 2.47-6.21 1.49-4.69 2.89-9.42 4.35-14.17-13.49-.99-26.15 10.5-28.5 20.58Zm-.26.64c-4.66 12.12 1.3 27.56 11.15 33.74 2.11-6.7 4.2-13.34 6.25-20 .09-.29-.12-.87-.38-1.07-5.6-4.2-11.23-8.36-17.02-12.67m57.98-.5c-3.48-12.56-18.12-22.22-28.43-20.45 2.02 6.39 4.01 12.78 6.09 19.14.18.54 1.04 1.24 1.59 1.25 6.85.1 13.72.06 20.75.06m-11.12 34.51c-4.64-3.35-9.35-6.3-13.48-9.91-3.23-2.82-5.48-2.49-8.55.09-4.24 3.55-8.89 6.59-13.41 9.9 10.08 7.59 24.64 7.6 35.44-.08m11.25-34.02c-5.54 4.19-10.92 8.21-16.22 12.36-.5.38-.7 1.57-.57 2.28.3 1.66.89 3.28 1.4 4.91 1.47 4.71 2.98 9.4 4.5 14.21 11.29-8.3 14.89-23.04 10.88-33.76Zm-18.38 9.68c.07-6.11-4.43-10.81-10.46-10.8-5.53.01-10.41 4.04-10.5 10.31-.08 6.04 4.2 10.53 10.01 10.72a10.3 10.3 0 0 0 10.94-10.23Zm14.62-102.29c4.83.48 8.41 2.72 10.9 6.45 4.45 6.65 5.27 14.15 4.47 21.9-.47 4.47-1.1 8.93-1.7 13.71-2.32-1.51-4.31-2.65-6.07-4.06-.51-.43-.57-1.69-.47-2.53a62 62 0 0 0-4.08-29.78c-.74-1.84-1.88-3.53-3.05-5.7Zm-64.26 41.91c-.56-3.08-1.38-5.93-1.5-8.82-.23-5.31-.53-10.67.04-15.92.7-6.56 3.43-12.33 9.66-15.64 1.45-.78 3.14-1.13 5.14-1.82-1.68 3.7-3.41 6.7-4.41 9.94a61 61 0 0 0-2.79 22.72c.11 1.51.23 3.01.27 4.52 0 .36-.18.86-.46 1.05-1.86 1.31-3.77 2.54-5.94 3.97Zm-1.81 43.94c-5.86-5.66-7.57-12.48-2-19.95 1.39-1.88 3.15-3.51 4.66-5.31 2.82-3.35 3.18-7.11 2.15-11.29-.97-3.97-.49-6.98 4.17-8.67.86 4.56 1.99 9.12 2.49 13.75.52 4.76-1.65 8.51-5.41 11.54-2.62 2.1-4.51 4.86-4.48 8.43 0 1 .34 2.33 1.02 2.93 1.37 1.21.87 2.11.16 3.31-1.01 1.71-1.85 3.5-2.77 5.27Zm81.23-.22-3.57-6.83c3.85-3.84 2.6-8.21-2.08-12.54-3.79-3.49-6.3-7.31-5.88-12.5.22-2.74 1.23-5.41 1.82-8.14.36-1.64.62-3.3.92-4.94 3.17.87 4.82 3.71 4.43 7.27a43 43 0 0 0-.13 9.11c.14 1.38 1.34 2.84 2.44 3.87 3.16 2.94 5.67 6.25 6.95 10.42 1.55 5.07-.51 11.11-4.9 14.28" fill="#ffd02d" fill-rule="evenodd"/><path d="M44.44 235.55a64 64 0 0 1-5.32-22.56c-.12-2.8.54-5.73 1.39-8.43.93-2.98 3.51-4.3 6.87-4.77-2.37 6.37-2.62 12.81-2.25 19.25.22 3.69.5 7.48 1.53 11.03.82 2.81.03 4.24-2.21 5.49Zm86.42.28-2.83-2.66c2.88-11.05 3.63-22.07.08-33.1 2.92-.29 5.75 1.71 6.87 4.78 1.58 4.33 1.34 8.72.77 13.18-.78 6.08-2.55 11.86-4.88 17.8Zm1.17 60.74c-.27-.38-.81-.91-1.02-1.55-.2-.54-.05-1.22-.05-1.86.61.19 1.37.22 1.8.61.69.62 1.13 1.48 1.71 2.21.58.74 1.24 2.06 1.82 2.04 1.5-.06 3.22-.38 4.4-1.22 2.89-2.05 4.1-5.93 3.46-9.74-1.93.88-3.81 1.9-5.79 2.59-2.01.71-4.13 1.1-6.21 1.62-.78-3.12-.63-2.98 2.11-4.04 2.33-.9 4.43-2.45 6.63-3.7a3 3 0 0 1 1.3-.44c1.69-.05 3.38-.02 4.72-.02-.24 2.44-.72 5.18-.74 7.92-.05 4.56-3.47 9.15-9.61 9.58.07 1.11.28 2.24.22 3.34-.19 2.73-1.56 4.86-4.07 5.83-2.04.78-4.27 1.09-6.44 1.45-.4.07-.91-.64-1.38-.99.43-.38.81-.92 1.3-1.09 2.09-.69 4.27-1.13 6.32-1.91 1.85-.71 2.36-2.44 2.25-4.25-.11-1.83-.86-3.15-3-3.49-1.18-.19-3-.35-2.82-2.21.04-.33 1.97-.45 3.08-.68Zm-93.04 4.05c-6.82-.97-9.85-4.52-9.99-11.36-.05-2.15-.31-4.3-.47-6.39l4.63.22c.28 0 .71-.09.83.06 2.52 2.99 6.11 3.86 9.69 4.75l-.54 3.65-11.91-4.09c-.78 5.24 1.7 10.21 6.79 10.66 1.08.1 1.9.01 2.39-1.23a9 9 0 0 1 1.9-2.85c.49-.5 1.4-.6 2.13-.87-.06.71-.02 1.45-.22 2.11-.16.49-.63.89-1.31 1.79 1.02-.26 1.51-.52 2-.49.49.02.96.29 1.45.47-.18.51-.22 1.2-.58 1.46-.68.49-1.51.85-2.34 1.02-1.54.34-2.65.98-2.74 2.72-.1 1.93-.21 3.96 1.94 4.83 2.1.85 4.35 1.33 6.51 2.05.44.14.76.61 1.15.94-.4.39-.81 1.14-1.21 1.14-3.3 0-6.45-.66-8.83-3.2-1.96-2.08-2.14-4.59-1.29-7.37Zm99.23-88.79c3.22 1.98 4.26 5.13 4.36 8.33.22 7.78-2.42 14.88-5.98 21.87-1.39-1.56-2.66-2.88-3.83-4.31-.23-.28-.22-.96-.04-1.34a58 58 0 0 0 5.2-23.97c0-.1.12-.23.3-.58Zm-99.43 30.3c-3.64-7.42-6.56-14.78-5.82-23.01.26-2.86 1.22-5.54 3.8-7.05 1.04 5.66 1.94 11.25 3.14 16.8.5 2.33 1.54 4.58 2.48 6.8.43 1.04.57 1.81-.29 2.7-1.09 1.12-2.07 2.34-3.31 3.77Zm-3.91 6.92c-3.79-5.61-6.74-11.51-7.86-18.23-.62-3.77.77-7.69 3.74-9.33-.39 5.76 1.42 10.93 3.49 16.02.7 1.72 1.56 3.37 2.48 4.98.62 1.07.65 1.88-.09 2.93-.75 1.07-1.17 2.38-1.76 3.62Zm105.68-.06c-.85-1.62-1.72-3.08-2.38-4.63-.18-.43.16-1.18.43-1.69 3.52-6.57 6.06-13.42 6.19-21.17a7.3 7.3 0 0 1 3.48 6.14c.32 6.6-2.37 12.29-5.54 17.8-.67 1.17-1.4 2.29-2.18 3.55M34 256.36c-5.6-4.38-10.89-8.68-11.79-16.12-.35-2.93.62-5.63 2.25-8.46.27.72.48 1.2.62 1.67.14.49.15 1 .27 1.48a37 37 0 0 0 6.77 13.97 8.6 8.6 0 0 1 1.88 7.46m116.63-24.57c5.48 7.5 1.64 17.3-9.21 24.28.08-2.35-.49-4.32 1.28-6.52a36.4 36.4 0 0 0 7.93-17.76M20.51 244.98c3.29 5.92 7.21 10.46 12.68 13.27l-.95 4.33c-7.36.87-12.95-5.33-11.73-17.6m121.56 13.3c5.64-2.71 9.5-7.42 12.8-13.35.73 4.62.1 8.44-1.67 12.17-1.97 4.19-5.57 5.48-9.81 5.73z" fill="#ffd02d" fill-rule="evenodd"/><path d="M19.14 257.5c3.15 5.04 7.22 7.82 12.81 8.34.39.03.87 1.84.84 2.83-.02.82-.73 1.61-1.16 2.5-6.68.07-12.76-6.26-12.49-13.67m123.01 8.35c6.47-.4 10.73-3.02 13.76-7.91.87 5.69-3.56 12.25-12.35 13.38l-1.4-5.48Zm1.22 14.59c.21-1.99.33-3.82.63-5.64.07-.47.65-1.18 1.05-1.22a13.4 13.4 0 0 0 9.42-4.78c.08 7.66-4.5 12.32-11.1 11.64M20.88 268.59c2.75 3.44 6.1 4.8 10.03 5l1.23 6.85c-6.48.84-11.61-4.23-11.25-11.85Zm114.21 1.12c-1.24-3.27.16-7.8 2.97-9.57.54-.34 1.73-.6 1.93-.34a5.5 5.5 0 0 1 1.29 2.78c.27 4.34-1.62 6.46-6.18 7.13Zm5.67 7.01c.34 3.63-2.07 8.01-9.36 8.73-.42-1.38-.83-2.8-1.25-4.16zm-100.6-6.91c-5.75-.78-5.95-3.48-5.91-8.07.02-1.98 1.4-2.65 3.06-1.64 2.87 1.72 4.29 6.57 2.85 9.71m4.98 11.48-1.12 4.17c-6.72-1.07-9.42-3.67-9.37-8.77zm96.15-10.16c-.68 1.16-1 2.43-1.79 2.95a104 104 0 0 1-8.45 4.87c-.41.21-1.34-.16-1.79-.54-.27-.22-.35-1.2-.1-1.46 2.9-3.09 6.26-5.41 10.58-6.02.33-.05.69.08 1.55.2m-100.85-11c-4.04-3.39-5.45-7.24-4.01-11.03.23-.59.8-1.42 1.29-1.48.52-.06 1.32.52 1.7 1.04 1.9 2.56 2.41 8.4 1.02 11.47m4.58 19.04c-4.3-.98-7.49-3.2-10.17-6.2-.31-.35-.42-1.08-.31-1.57.06-.23.85-.52 1.25-.47a17 17 0 0 1 10.31 6c.28.32.08 1.21-.14 1.72-.14.33-.75.43-.94.52m89.69-19.3c-1.51-3.93-.61-7.71 1.4-11.33.28-.5 1.45-1.05 1.66-.88.62.48 1.28 1.28 1.35 2.02.4 4.12.46 8.17-4.41 10.19m-5.3-10.88c.54-1.57 1.16-3.6 1.99-5.55.22-.52 1.14-1.12 1.65-1.04.51.07 1.14.88 1.29 1.47.75 3.05.36 6-1.2 8.72-.34.6-1.15 1.29-1.72 1.28-.48-.03-1.1-.94-1.37-1.58-.34-.84-.37-1.81-.64-3.31Zm-83.76.68c-.17 1.05-.2 2.14-.54 3.15-.52 1.48-1.69 1.69-2.51.43a11 11 0 0 1-1.42-9.66c.15-.51.79-1.16 1.24-1.2.49-.04 1.32.46 1.5.92.79 2.03 1.39 4.12 2.06 6.19zm84.18-6.91c-.27 1.51-.47 3.14-.91 4.71-.15.54-.88 1.15-1.43 1.26-.36.06-1.09-.64-1.3-1.16a12.4 12.4 0 0 1-.04-9.57c.24-.56 1.07-1.4 1.37-1.31.62.2 1.35.87 1.52 1.49.42 1.43.52 2.94.78 4.58Zm-84.39-.24c.32-1.62.56-3.18 1.01-4.69.15-.49.85-1.13 1.32-1.13.47-.01 1.18.6 1.37 1.09a13 13 0 0 1-.04 9.84c-.21.49-.91 1.12-1.35 1.09-.48-.05-1.18-.69-1.31-1.17-.45-1.65-.68-3.37-1-5.04Z" fill="#ffd02d" fill-rule="evenodd"/><path d="M69.27 231.93c-.15-9.66 8.38-18.87 19.45-18.3 9.45.51 17.76 8.72 17.5 19.03-.23 9.34-8.69 18.33-19.29 17.93-9.53-.36-17.72-8.75-17.67-18.67Zm-10.28 50.12c2.35-10.08 15-21.57 28.5-20.58-1.46 4.76-2.86 9.48-4.35 14.17-.69 2.17-.95 5.07-2.47 6.21-1.45 1.09-4.3.36-6.53.36q-7.36.01-14.74-.02c-.14 0-.28-.1-.4-.14Zm-.26.64c5.79 4.31 11.42 8.47 17.02 12.67.26.19.47.78.38 1.07-2.05 6.66-4.14 13.3-6.25 20-9.85-6.18-15.81-21.62-11.15-33.74m37.23-.56c-.56 0-1.41-.71-1.59-1.25-2.08-6.36-4.07-12.74-6.09-19.14 10.3-1.77 24.95 7.9 28.43 20.45m-11.12 34.51c-10.8 7.68-25.36 7.66-35.44.08 4.51-3.31 9.17-6.35 13.41-9.9 3.08-2.58 5.32-2.91 8.55-.09 4.14 3.61 8.84 6.56 13.48 9.91m11.25-34.02c4.01 10.72.41 25.45-10.88 33.76-1.53-4.8-3.04-9.5-4.5-14.21-.51-1.62-1.09-3.25-1.4-4.91-.14-.72.06-1.9.57-2.28 5.29-4.15 10.68-8.17 16.22-12.36Z" fill="#394278" fill-rule="evenodd"/><path d="M98.46 292.36a10.3 10.3 0 0 1-10.94 10.23c-5.81-.19-10.1-4.67-10.01-10.72.08-6.27 4.97-10.3 10.5-10.31 6.03-.02 10.53 4.69 10.46 10.8Z" fill="#ed3024" fill-rule="evenodd"/><path d="m432.36 351.3-.82-.24a107 107 0 0 1-18.37-7.96 96 96 0 0 1-13.11-8.85 87 87 0 0 1-9.7-9.09 108 108 0 0 1-15.7-22.41c-3.71-7-6.77-14.17-9.09-21.33a222 222 0 0 1-4.45-15.49 256 256 0 0 1-3.2-15.47 254 254 0 0 1-2.75-21.74q-.41-5.83-.76-11.64l-.4-6.22-.38-4.81 4.8.45c.55.05.91.1 1.26.17.54.08 1.15.14 1.74.14a7.3 7.3 0 0 0 5.69-2.58 5.9 5.9 0 0 0 1.53-5.02 6.4 6.4 0 0 0-1.16-2.91l-.15-.23-2.29-4.54 4.22-1.71 1.86-.68q2.03-.78 4.06-1.44l2.23-.69c3.35-1.06 6.71-2.1 10.12-2.97a170 170 0 0 1 12.48-2.67 176 176 0 0 1 27.89-2.87q2.3-.07 4.6-.06 4.53 0 9.06.21c4.21.19 8.39.62 12.58 1.01 1.78.18 3.28.43 4.78.65l2.43.38c5.97.84 11.73 2.17 16.09 3.25 2.94.73 5.86 1.61 8.76 2.53q3.2 1.04 6.38 2.16l2.46.85c.37.12.7.25 1.08.42l4.29 1.77s-2.96 5.22-3.11 5.51a6 6 0 0 0-.42 4.75 7 7 0 0 0 3.51 4.01 7.6 7.6 0 0 0 5.24.73l.44-.1.69-.03h1.76l1.44 1.38c.61.65 1.3 1.78 1.18 3.52l-.17 2.87q-.1 2.09-.26 4.17-.45 5.57-.99 11.14l-.05.56c-.21 2.27-.43 4.53-.75 6.79a485 485 0 0 1-2.26 14.74c-.61 3.52-1.38 7.02-2.19 10.5-.92 3.88-1.84 7.76-2.96 11.58a217 217 0 0 1-3.84 11.63 135 135 0 0 1-8.59 19.11 110 110 0 0 1-11.9 17.65 93 93 0 0 1-11.89 11.96 92 92 0 0 1-17.66 11.57 99 99 0 0 1-12.98 5.35l-.63.21-1.02.06h-.66Z" fill="#394278" fill-rule="evenodd"/><path d="M475.73 207.02c.38-.9.87-1.78 1.12-2.73.73-2.73.12-5.3-1.35-7.64-.67-1.05-1.55-1.97-2.32-2.94a3 3 0 0 1-.52-.81c-.1-.23-.22-.65-.1-.76.16-.16.55-.2.8-.14q2.63.71 4.71 2.47c2.09 1.77 3.13 4.14 3.79 6.72.88 3.41.75 6.85.3 10.3-.2 1.52-.54 3.03-.82 4.52 0 .06.02.13.07.4.22-.41.39-.67.52-.96 1.1-2.43 1.86-4.91 1.44-7.68-.18-1.2.03-2.45-.05-3.67-.12-1.95-.34-3.86-.49-5.8q-.06-.88.03-1.77c.08-.74.61-.98 1.26-.58a7.7 7.7 0 0 1 3.46 4.74c.49 1.87.92 3.76 1.2 5.66.23 1.56.36 3.17.25 4.76a44 44 0 0 1-.9 6.46c-.37 1.66-1.13 3.26-1.71 4.88-.08.19-.19.38-.21.6 1.12-1.28 2.43-2.47 2.86-4.19.64-2.56 1.17-5.15 1.77-7.74.09-.35.32-.67.6-1.25.49.71.88 1.22 1.2 1.77a18 18 0 0 1 2.29 6.44 11.6 11.6 0 0 1-.88 6.82 83 83 0 0 1-2.93 5.82 15 15 0 0 1-3.71 4.33q-.3.23-.62.4l.21.26q.66-.33 1.27-.72a87 87 0 0 0 3.17-2.27c1.06-.78 1.42-2.01 1.93-3.13.39-.88.77-1.75 1.24-2.58.46-.74.96-.71 1.37.07a8 8 0 0 1 .9 4.63q-.28 2.7-.89 5.34c-.49 2.11-1.75 3.85-2.91 5.64a7.7 7.7 0 0 1-3.71 3.07c-.3.14-.7.48-.7.73s.38.6.67.76c1.6.89 3.24 1.7 4.83 2.6.87.47 1.09 1.07.59 1.9-1.71 2.91-3.94 5.12-7.58 5.31-.54.03-1.09.19-1.83.33.69.48 1.22.8 1.69 1.2a11.7 11.7 0 0 1 3.6 5.44c.32 1.02-.17 1.75-1.32 1.49-1.77-.39-3.5-.05-5.2.42-.82.24-1.08.79-.67 1.59.54 1.03 1.17 2.02 1.76 3.02q.45.73.81 1.48.5 1.2-.77 1.26l-4.93.3c-.68.03-.84.35-.62 1.11q.47 1.6.86 3.18c.27 1.06.05 1.35-1.07 1.32-1.26-.01-2.51-.09-3.76-.12-.47-.01-.96.04-1.48.07.07.25.07.32.1.32 2.03 1.11 1.93 3 1.84 4.89-.03.67-.57.86-1.12.44a4.7 4.7 0 0 0-4.07-.84l.35 2.36c.17 1.24.4 2.48.51 3.72q.43 5.37-.2 10.75a48 48 0 0 1-5.21 17.09 43 43 0 0 1-12.62 14.94 38 38 0 0 1-11.98 5.92 34 34 0 0 1-13.41 1.13c-6.85-.75-13-3.35-18.45-7.54a42.6 42.6 0 0 1-13.2-17.14 57 57 0 0 1-2.73-7.88c-.64-2.45-1.05-5-1.25-7.52a76 76 0 0 1-.17-8.91c.09-2.2.56-4.37.86-6.55l.03-.4a4.7 4.7 0 0 0-3.85.8c-.22.16-.64.34-.73.26-.22-.21-.44-.57-.43-.86.04-.97.02-1.99.32-2.89.25-.73.93-1.29 1.49-2.03-.21-.05-.52-.17-.84-.17-1.46.04-2.91.12-4.36.14-1.02.02-1.2-.19-.96-1.17q.38-1.69.86-3.32c.23-.79.02-1.08-.79-1.11l-5-.3c-.65-.05-.9-.52-.52-1.24.57-1.07 1.25-2.1 1.84-3.16.32-.57.62-1.16.82-1.78.21-.63-.17-1.02-.77-1.17a12 12 0 0 0-5.22-.43c-1.11.2-1.71-.41-1.33-1.48.96-2.63 2.4-4.93 4.97-6.31.06-.03.08-.12.21-.3-.53-.13-1.02-.32-1.5-.33-3.38-.09-5.61-2.03-7.41-4.62-.97-1.4-.84-2 .61-2.86 1.26-.73 2.6-1.33 3.89-2.03.5-.27.94-.64 1.62-1.11-.72-.44-1.19-.81-1.74-1.05a6 6 0 0 1-2.62-2.16c-1.15-1.66-2.47-3.26-3.02-5.24-.5-1.8-.74-3.68-1.13-5.53-.34-1.61 0-3.16.48-4.68.15-.5.62-.89.94-1.32.38.39.85.72 1.1 1.18q.69 1.22 1.15 2.52a6.2 6.2 0 0 0 2.44 3.13q1.6 1.09 3.24 2.16.18.14.49.1-.17-.22-.36-.42c-2.71-2.23-4.5-5.09-5.84-8.26-.68-1.59-1.37-3.2-1.75-4.86-.27-1.2-.22-2.5-.05-3.74a18.5 18.5 0 0 1 2.75-7.42l.24-.36.36-.47.27-.02c.25.63.58 1.24.74 1.91.53 2.31.93 4.67 1.52 6.97.44 1.65 1.68 2.86 2.75 4.12l.16-.09q-.3-.53-.57-1.06a22 22 0 0 1-1.74-6.02 78 78 0 0 1-.53-4c-.36-3.13.14-6.17.97-9.16.31-1.18.59-2.36 1.02-3.49a7 7 0 0 1 2.85-3.26c.66-.43 1.24-.19 1.25.61.02 1.4-.08 2.78-.14 4.17-.1 2.27-.24 4.55-.28 6.83-.03 1.5-.1 3.02.18 4.46.28 1.45 1 2.79 1.51 4.19l.27-.1q-.1-.47-.22-.92a35 35 0 0 1-.83-10.83 15 15 0 0 1 2.99-8.53 11.5 11.5 0 0 1 6.08-3.9c.24-.05.6.03.8.19.09.06.01.51-.11.7-.49.72-.97 1.49-1.57 2.12a11.4 11.4 0 0 0-2.85 6.07c-.39 2.29.54 4.09 1.46 6.2.08-.36.12-.5.13-.66.2-3.43.59-6.83 2.08-9.97a18 18 0 0 1 2.77-4.21 7 7 0 0 1 2.75-1.57c1.21-.42 2.51-.57 3.77-.85.1-.01.21-.07.28-.05q.44.13.87.28c-.16.25-.27.56-.47.75-.78.63-1.64 1.18-2.38 1.86-2.66 2.42-3.74 5.48-3.53 9.04.07 1.09.21 2.19.33 3.28.01.13.13.25.3.56.28-1.02.56-1.84.7-2.69.74-4.45 2.55-8.28 6.12-11.17 1.2-.98 2.64-1.36 4.13-1.7 2.08-.47 4.17-.62 6.28-.54.52.03 1.02.24 1.73.42-.39.34-.57.58-.79.71-2.78 1.55-4.89 3.82-6.94 6.2-1.25 1.46-2.51 2.88-3.12 4.74a9 9 0 0 0-.39 5.21q1.07-.34 2.06-.6.57-.15 1.16-.14c.56 0 .8.36.63.89l-1.7 5.53c-1.19 3.86-1.96 7.79-1.59 11.85a22 22 0 0 0 2.67 8.59c2 3.59 4.04 7.17 6.26 10.64 1.99 3.07 1.24 6.02-.71 8.51a11 11 0 0 1-5.58 3.61c-1.12.36-2.18.96-3.23 1.51-.36.19-.65.58-.91.93-.49.71-.48 1.3.1 1.94.56.6 1.2 1.13 1.67 1.56 2.13-1.81 4.11-3.66 6.24-5.31a31 31 0 0 1 8.88-4.79c1.84-.62 3.7-1.31 5.6-1.68q4.53-.86 9.17-.6 4.67.27 9.07 1.75a33 33 0 0 1 9.73 5.04c2.18 1.72 4.17 3.66 6.26 5.48.13.11.47.14.6.06q.64-.5 1.24-1.05c1.2-1.04 1.17-2.14-.23-3.17-1-.74-2.22-1.22-3.39-1.66-1.54-.59-3.07-1.13-4.32-2.24a9.2 9.2 0 0 1-3.2-5.79c-.17-1.39.36-2.64 1.07-3.82 1.88-3.07 3.83-6.09 5.53-9.26a39 39 0 0 0 2.89-6.85c.93-3 .9-6.13.44-9.25-.55-3.68-1.72-7.17-2.83-10.7-.15-.49-.64-1.12-.05-1.48.42-.25 1.1-.16 1.64-.06.67.1 1.3.37 2.16.65 0-1.07.06-2.04-.01-2.99-.26-2.97-1.95-5.2-3.88-7.32-2.05-2.26-4.1-4.49-6.83-5.98-.18-.1-.32-.28-.68-.6.72-.19 1.22-.41 1.74-.45q3.96-.23 7.77.88a8.4 8.4 0 0 1 3.73 2.24 17.5 17.5 0 0 1 3.96 6.12c.48 1.33.71 2.78 1.06 4.16l.68 2.62c.17-.23.3-.34.32-.47.47-2.33.61-4.65.05-7.01a9.7 9.7 0 0 0-2.44-4.52c-.93-.96-2.06-1.73-3.08-2.61-.23-.2-.38-.51-.57-.76.3-.1.63-.32.93-.28 1.78.21 3.54.61 5.21 1.32 1.37.59 2.13 1.71 2.92 2.82a16 16 0 0 1 2.78 7.02q.43 2.89.83 5.81l.13.07Zm-32.17 91.26q.05.17.06.34c-.12 1.43-.17 2.89-.39 4.33a75 75 0 0 1-1.09 6.14c-.69 2.98-1.76 5.76-3.98 8.01-2.6 2.63-5.74 3.73-9.32 3.13-3.04-.52-5.2-2.41-6.52-5.24-.39-.82-.69-1.69-1.18-2.43-1.68-2.55-4.4-3.47-6.93-2.66-3.07.98-4.12 3.59-3.45 6.76.55 2.59 1.9 4.82 3.76 6.72a19.8 19.8 0 0 0 12 5.89c3.79.47 7.58.29 11.32-.73a21.7 21.7 0 0 0 12.21-8.75c3.41-4.82 5.1-10.29 6-16.03.34-2.21.45-4.46.61-6.69.39-5.52.05-11-1.11-16.41a35 35 0 0 0-3.12-8.84 22.4 22.4 0 0 0-6.81-8.02 23 23 0 0 0-11.27-4.09c-4.15-.43-8.2-.03-12.07 1.51-8.29 3.26-12.76 9.58-14.14 18.21-.58 3.59-.25 7.19.8 10.71a21.5 21.5 0 0 0 4.4 8.17 19.4 19.4 0 0 0 12.42 6.67c2.21.28 4.38.27 6.53-.14a17.5 17.5 0 0 0 8.53-4.08q1.36-1.2 2.74-2.48" fill="#fff" fill-rule="evenodd"/><ellipse cx="432.4" cy="294.6" rx="40.07" ry="45.46" fill="#ffd02d"/><path d="m432.81 190.39 5.4 17.3h18.23l.27.17c-.19.05-.4.06-.56.16l-11.09 7.84q-1.5 1.08-3 2.13c-.34.24-.38.47-.24.85q1.83 5.3 3.62 10.59l2.12 6.34c-5.05-3.75-9.93-7.38-14.8-11.02l-14.78 11.02.5-1.57 3.31-9.9c.63-1.87 1.3-3.71 1.92-5.59.05-.18-.09-.56-.27-.68q-4.27-3.07-8.55-6.09a675 675 0 0 0-6.08-4.32h1.11l16.75.2c.44 0 .65-.12.79-.56q2.46-8.03 4.96-16.06.12-.39.2-.76l.19-.06Zm-8.27 25.07a7.93 7.93 0 0 0 8 8.08 8.06 8.06 0 0 0 8.03-8.1c.05-4.26-3.76-7.99-8.01-8.01-4.29-.02-8.25 3.75-8.02 8.02Z" fill="#fff" fill-rule="evenodd"/><path d="M443.56 298.28q-1.38 1.28-2.74 2.48a17.5 17.5 0 0 1-8.53 4.08 21 21 0 0 1-6.53.14 19.4 19.4 0 0 1-12.42-6.67 21 21 0 0 1-4.4-8.17 24 24 0 0 1-.8-10.71c1.38-8.62 5.85-14.94 14.14-18.21a25 25 0 0 1 12.07-1.51c4.11.43 7.9 1.67 11.27 4.09a22 22 0 0 1 6.81 8.02 35 35 0 0 1 3.12 8.84 58 58 0 0 1 1.11 16.41c-.16 2.23-.28 4.47-.61 6.69-.9 5.74-2.59 11.22-6 16.03a21.7 21.7 0 0 1-12.21 8.75 29 29 0 0 1-11.32.73 20 20 0 0 1-12-5.89 13.6 13.6 0 0 1-3.76-6.72c-.67-3.18.38-5.79 3.45-6.76 2.53-.81 5.26.11 6.93 2.66.49.74.8 1.62 1.18 2.43 1.32 2.82 3.48 4.72 6.52 5.24 3.58.61 6.72-.49 9.32-3.13 2.21-2.25 3.29-5.04 3.98-8.01.47-2.03.8-4.08 1.09-6.14.21-1.44.27-2.9.39-4.33q-.01-.17-.06-.34m-.92-14.97c-.15-1.16-.26-2.35-.46-3.5-.62-3.6-2.16-6.68-5.16-8.87a9.6 9.6 0 0 0-8.45-1.65c-3.43.92-5.49 3.4-6.83 6.53-1.07 2.45-1.27 5.07-1.2 7.72.05 2.03.39 4 1.18 5.86 1.59 3.69 4.26 6.14 8.34 6.63a10.4 10.4 0 0 0 8.7-2.99c2.74-2.65 3.89-5.96 3.88-9.74Zm-18.1-67.85c-.23-4.27 3.73-8.04 8.02-8.02 4.24.01 8.05 3.75 8.01 8.01a8.06 8.06 0 0 1-8.03 8.1 7.95 7.95 0 0 1-8-8.08Z" fill="#ed3024" fill-rule="evenodd"/><path d="M442.64 283.31c0 3.78-1.15 7.09-3.88 9.74a10.4 10.4 0 0 1-8.7 2.99c-4.08-.5-6.75-2.94-8.34-6.63a15 15 0 0 1-1.18-5.86c-.07-2.65.13-5.27 1.2-7.72 1.35-3.13 3.4-5.61 6.83-6.53a9.6 9.6 0 0 1 8.45 1.65c3 2.19 4.54 5.27 5.16 8.87.2 1.15.31 2.34.46 3.5Z" fill="#ffd02d" fill-rule="evenodd"/><path d="M142.7 406.21c19.86-19.87 78.03-83.07 99.38-117.59l-14.96-14.96c-34.52 21.36-97.72 79.53-117.58 99.38-12.27 12.27-30.46 29.64-44.39 46.51l31.04 31.04c7.63-6.3 41.17-39.04 46.51-44.38m268.55-268.18c11.73-11.73 28.87-28.12 42.53-44.29l-31.4-31.4c-16.18 14.49-35.33 33.56-44.29 42.52-19.86 19.86-78.04 83.05-99.39 117.59l14.97 14.96c34.52-21.36 97.71-79.53 117.59-99.38Zm-301.53-.18c19.86 19.86 83.06 78.03 117.58 99.39l14.97-14.96c-21.35-34.53-79.52-97.72-99.38-117.58-12.01-12.01-28.88-29.68-45.41-43.49L66.25 92.44c13.8 16.53 31.47 33.4 43.48 45.41Zm303.37 232.73c-20.21-19.51-84.4-76.57-119.3-97.33l-14.69 15.23c21.95 34.15 81.21 96.32 101.42 115.83 12.14 11.73 29.19 28.96 45.85 42.43l31.24-31.24c-14.13-16.37-32.23-33.07-44.52-44.93Z" fill="#231f20"/><path d="M430.06 449.68c18.49 14.35 36.02 23.18 45.26 13.6 9.15-9.47.02-26.41-14.69-44.18z" fill="#ffd02d"/><path d="m60.76 470.5.51-.06q-.04-.1-.07-.24-.24.12-.43.3Z" fill="#394278"/><path d="M93.83 58.22C75.71 43.69 58.47 34.71 49.11 44.07s-.38 26.59 14.15 44.72z" fill="#ffd02d"/><path d="M277.24 272.38a23.7 23.7 0 0 1-14.44 6.85l9.23 9.23 20.66-20.66-8.76-8.75a23.8 23.8 0 0 1-6.69 13.33m-19.27-40.55-9.23-9.24-20.65 20.66 8.76 8.76a23.7 23.7 0 0 1 21.13-20.18Z" fill="#231f20"/><path d="M279.75 252.94a10.7 10.7 0 0 1-5.35 7.88c-3.43 1.86-7.5 1.52-10.85-.49a5.64 5.64 0 0 0-6.23-9.07c-.93-4.95 1.02-9.93 5.28-12.23a10.2 10.2 0 0 1 6.2-1.12 19.5 19.5 0 0 0-22.27 3.76 19.6 19.6 0 1 0 27.72 27.73 19.5 19.5 0 0 0 5.5-16.46m4.34.18 9.23-9.24-20.66-20.65-8.75 8.75c4.87.73 9.57 2.94 13.32 6.7a23.7 23.7 0 0 1 6.85 14.43Z" fill="#231f20"/><path d="m236.69 257.95-9.23 9.23 20.66 20.65 8.75-8.75a23.7 23.7 0 0 1-20.18-21.13" fill="#231f20"/><path d="M61.92 422.83c-14.35 18.49-23.18 36.02-13.6 45.26 9.47 9.15 26.41.02 44.18-14.69zM456.78 89.87c14.35-18.49 23.18-36.02 13.6-45.26-9.47-9.15-26.41-.02-44.18 14.69z" fill="#ffd02d"/></svg>